<svg width="40" height="40" viewBox="0 0 40 40" fill="none" xmlns="http://www.w3.org/2000/svg">
<g id="vuesax/outline/shield-tick">
<g id="shield-tick">
<path id="Vector" d="M8.09919 30.5993L8.09895 30.5991C7.22622 29.9484 6.42561 28.9207 5.84282 27.7591C5.25998 26.5974 4.91675 25.3452 4.91675 24.2667V11.8667C4.91675 9.50745 6.67158 6.96186 8.89125 6.13522L8.89221 6.13486L17.2085 3.01835C17.2085 3.01832 17.2086 3.01829 17.2087 3.01826C17.9622 2.7367 18.9617 2.58749 19.9834 2.58749C21.0052 2.58749 22.0046 2.7367 22.7581 3.01826C22.7582 3.01829 22.7583 3.01832 22.7584 3.01835L31.0746 6.13486L31.0756 6.13522C33.2953 6.96186 35.0501 9.50745 35.0501 11.8667V24.25C35.0501 25.3372 34.7067 26.5893 34.1242 27.7484C33.5417 28.9074 32.7411 29.9314 31.8679 30.5825L31.8676 30.5827L24.701 35.9327L24.7009 35.9326L24.6948 35.9374C23.4121 36.9264 21.7241 37.4333 20.0001 37.4333C18.2775 37.4333 16.5853 36.927 15.265 35.9487C15.2648 35.9485 15.2646 35.9484 15.2645 35.9483L8.09919 30.5993ZM17.742 4.43154L17.7413 4.43179L9.42462 7.54846L9.42392 7.54872C8.59634 7.86028 7.8551 8.52257 7.32418 9.2907C6.79309 10.0591 6.43341 10.9898 6.43341 11.8833V24.2667C6.43341 25.1611 6.744 26.1893 7.201 27.1011C7.65788 28.0127 8.29337 28.8723 9.00094 29.4006L9.00098 29.4007L16.1673 34.7504C17.2293 35.5446 18.6283 35.925 20.0022 35.925C21.3762 35.925 22.7784 35.5446 23.8479 34.7517L23.8492 34.7507L31.0159 29.4007L31.0168 29.4C31.7315 28.8639 32.367 28.0051 32.8223 27.0944C33.2776 26.1838 33.5834 25.1601 33.5834 24.2667V11.8667C33.5834 10.9805 33.223 10.0538 32.6926 9.28654C32.1621 8.51898 31.4224 7.85406 30.5977 7.53389L30.5977 7.53386L30.5922 7.53179L22.2755 4.41512L22.2756 4.41504L22.2665 4.41183C21.6283 4.1866 20.8003 4.08323 20.0008 4.08541C19.2022 4.08759 18.3753 4.19523 17.742 4.43154Z" fill="#FAFAFA" stroke="#FAFAFA"/>
<path id="Vector_2" d="M17.413 21.0536L17.7666 21.4071L18.1201 21.0536L24.4035 14.7702C24.6915 14.4822 25.1749 14.4822 25.463 14.7702C25.7511 15.0583 25.7511 15.5417 25.463 15.8298L18.2963 22.9965C18.1451 23.1477 17.9578 23.2167 17.7666 23.2167C17.5754 23.2167 17.3881 23.1477 17.2368 22.9965L14.5535 20.3131C14.2654 20.025 14.2654 19.5416 14.5535 19.2536C14.8415 18.9655 15.3249 18.9655 15.613 19.2536L17.413 21.0536Z" fill="#FAFAFA" stroke="#FAFAFA"/>
</g>
</g>
</svg>
